<svg width="78" height="65" viewBox="0 0 78 65" fill="none" xmlns="http://www.w3.org/2000/svg">
<circle opacity="0.2" cx="56" cy="42.0781" r="22" fill="#8995AF"/>
<path d="M15.5259 16.7375C7.78613 26.3692 10.9189 39.8907 17.8294 46.3737L20.5937 48.2259L26.5828 50.0781H51V29.7034L50.0786 21.8313C49.925 20.7508 48.6965 17.6638 45.0109 13.9593C40.4038 9.32866 25.2007 4.69791 15.5259 16.7375Z" fill="#48CBF4"/>
<path d="M8 28.5781C8 16.704 17.6259 7.07812 29.5 7.07812C41.3741 7.07812 51 16.704 51 28.5781V50.0781H29.5C17.6259 50.0781 8 40.4522 8 28.5781Z" stroke="#1F242F" stroke-width="2"/>
<path d="M30 6.07812V11.0781C35.0339 11.4416 46.9661 16.2545 46.9661 28.3208C46.9661 40.3871 47 42.0781 47 42.0781H52" stroke="#1F242F" stroke-width="2"/>
<circle cx="30" cy="29.0781" r="11" stroke="#1F242F" stroke-width="2"/>
<circle cx="30" cy="29.0781" r="5" stroke="#1F242F" stroke-width="2"/>
<circle cx="35" cy="46.0781" r="1" fill="#1F242F"/>
<circle cx="39" cy="46.0781" r="1" fill="#1F242F"/>
<circle cx="43" cy="46.0781" r="1" fill="#1F242F"/>
<path d="M34.3811 51.0781H17V46.0781M51.4075 25.0781H56.9057L54 36.0781H52M51.9396 48.0713H64V51.0781" stroke="#1F242F" stroke-width="2"/>
<path opacity="0.3" d="M22.3101 1C16.3908 2.54323 11.125 5.95006 7.29132 10.7169C6.43232 11.785 5.65542 12.9087 4.96429 14.0781" stroke="#8995AF" stroke-width="2"/>
<path opacity="0.3" d="M1 27.4702C1.14349 23.7822 2.00061 20.1811 3.5 16.8577" stroke="#8995AF" stroke-dasharray="2 3"/>
</svg>
