<svg width="24" height="24" viewBox="0 0 24 24" fill="none" xmlns="http://www.w3.org/2000/svg">
<path d="M11.9442 14.3996C13.2837 14.3996 14.3442 13.3391 14.3442 11.9996C14.3442 11.4973 14.1768 10.995 13.8977 10.6043C13.4512 9.99031 12.7256 9.59961 11.9442 9.59961C11.1628 9.59961 10.4372 9.99031 9.99071 10.6043C9.71164 10.995 9.5442 11.4973 9.5442 11.9996C9.5442 13.3391 10.6605 14.3996 11.9442 14.3996Z" fill="#48CBF4"/>
<path d="M17.1908 9.04228V6.75391H16.9117H14.9024V9.04228H17.1908Z" fill="#48CBF4"/>
<path d="M23.9442 12C23.9442 5.41395 18.5861 0 12 0C5.41398 0 0.0558395 5.41395 0.0558395 12C0.0558395 17.8047 4.13026 22.6047 9.60003 23.7767C10.3814 23.9442 11.1628 24 12 24C18.5861 24 23.9442 18.6419 23.9442 12ZM7.75816 18.8093C6.307 18.8093 5.13491 17.6372 5.13491 16.186V7.81395C5.13491 6.36279 6.307 5.1907 7.75816 5.1907H16.1303C17.5814 5.1907 18.7535 6.36279 18.7535 7.81395V10.6047V16.186C18.7535 17.6372 17.5814 18.8093 16.1303 18.8093H7.75816Z" fill="#48CBF4"/>
<path d="M17.4698 16.1859V10.6045H15.4605C15.6279 11.051 15.7396 11.4975 15.7396 11.9998C15.7396 14.065 14.0652 15.7394 12 15.7394C9.93492 15.7394 8.26051 14.065 8.26051 11.9998C8.26051 11.4975 8.37213 11.051 8.53958 10.6045H6.53027V16.1859C6.53027 16.9115 7.08841 17.4696 7.81399 17.4696H16.1861C16.8559 17.4696 17.4698 16.9115 17.4698 16.1859Z" fill="#48CBF4"/>
</svg>
