<svg width="24" height="24" viewBox="0 0 24 24" fill="none" xmlns="http://www.w3.org/2000/svg">
<path d="M23.9442 12C23.9442 5.41395 18.586 0 12 0C5.41393 0 0.0557861 5.41395 0.0557861 12C0.0557861 17.8047 4.13021 22.6047 9.59997 23.7767C10.3814 23.9442 11.1628 24 12 24C18.586 24 23.9442 18.6419 23.9442 12ZM7.75811 18.8093C6.30695 18.8093 5.13486 17.6372 5.13486 16.186V7.81395C5.13486 6.36279 6.30695 5.1907 7.75811 5.1907H16.1302C17.5814 5.1907 18.7535 6.36279 18.7535 7.81395V10.6047V16.186C18.7535 17.6372 17.5814 18.8093 16.1302 18.8093H7.75811Z" fill="#48CBF4"/>
</svg>
