<svg width="24" height="24" viewBox="0 0 24 24" fill="none" xmlns="http://www.w3.org/2000/svg">
<path fill-rule="evenodd" clip-rule="evenodd" d="M12 0C5.37084 0 0 5.37084 0 12C0 18.6292 5.37084 24 12 24C18.6292 24 24 18.6292 24 12C24 5.37084 18.6292 0 12 0ZM18.0767 13.289C18.6292 13.8414 19.243 14.3632 19.734 14.9463C19.9489 15.2225 20.1637 15.4987 20.3171 15.8056C20.532 16.2353 20.3478 16.7263 19.9489 16.757H17.4936C16.8491 16.8184 16.3581 16.5422 15.9284 16.1125C15.5908 15.7749 15.2839 15.4067 14.9463 15.0384C14.8235 14.8849 14.6701 14.7621 14.5166 14.6394C14.179 14.4246 13.9028 14.4859 13.688 14.8235C13.5038 15.1918 13.4425 15.5601 13.4425 15.9591C13.4118 16.5422 13.2276 16.6957 12.6445 16.7263C11.3862 16.7877 10.2199 16.6036 9.11509 15.9591C8.16368 15.4067 7.39642 14.6394 6.75192 13.7494C5.49361 12.0307 4.51151 10.1279 3.62148 8.19437C3.43734 7.76471 3.5601 7.51918 4.05115 7.51918C4.8491 7.48849 5.64706 7.51918 6.44501 7.51918C6.78261 7.51918 6.99744 7.70333 7.12021 8.01023C7.54987 9.0844 8.07161 10.0972 8.7468 11.0486C8.93095 11.2941 9.11509 11.5396 9.36061 11.7238C9.63683 11.9079 9.85166 11.8465 10.0051 11.5396C10.0972 11.3248 10.1279 11.11 10.1586 10.8951C10.2199 10.1586 10.2199 9.422 10.1279 8.68542C10.0665 8.22506 9.79028 7.91816 9.32992 7.82609C9.0844 7.7954 9.11509 7.70333 9.23785 7.54987C9.422 7.30435 9.63683 7.18159 10.0051 7.18159H12.798C13.2276 7.27366 13.3197 7.4578 13.3811 7.91816V11.0179C13.3811 11.202 13.4731 11.6931 13.7801 11.8159C14.0256 11.9079 14.179 11.6931 14.3325 11.5396C15.0077 10.8338 15.468 10.0051 15.8977 9.14578C16.0818 8.77749 16.2353 8.37852 16.4194 7.97954C16.5422 7.67263 16.7263 7.54987 17.0332 7.54987H19.7033C19.7954 7.54987 19.8568 7.54987 19.9489 7.54987C20.4092 7.64194 20.532 7.82609 20.3785 8.25575C20.1637 8.96164 19.734 9.51407 19.3043 10.0972C18.844 10.711 18.3836 11.3248 17.954 11.9386C17.555 12.5217 17.5857 12.798 18.0767 13.289Z" fill="#48CBF4"/>
</svg>
