<svg width="68" height="56" viewBox="0 0 68 56" fill="none" xmlns="http://www.w3.org/2000/svg">
<circle opacity="0.2" cx="46" cy="34" r="22" fill="#8995AF"/>
<path d="M13 29.3932V17.7964V12.5979L27.5357 5L46 10.9983V30.5929L43.6429 36.9911L40.1071 42.9894L34.6071 46.9883L27.5357 50.9872C26.4881 51.1205 23.2929 50.2674 18.8929 45.7887C14.4929 41.3099 13.131 32.9922 13 29.3932Z" fill="#48CBF4"/>
<path d="M37.9226 24.1964C38.2009 26.5317 37.7239 28.8975 36.5681 30.9141C35.4123 32.9307 33.6448 34.481 31.5493 35.3164C29.4537 36.1517 27.1516 36.2236 25.0125 35.5205C22.8734 34.8174 21.0213 33.38 19.7534 31.4391C18.4856 29.4982 17.8755 27.1663 18.0211 24.8178C18.1668 22.4692 19.0597 20.24 20.5565 18.4882C22.0534 16.7363 24.0674 15.5633 26.2753 15.1573C28.4832 14.7514 30.757 15.1362 32.7317 16.2498" stroke="black" stroke-width="2"/>
<path d="M24 23.873L27.7978 28L37 18" stroke="black" stroke-width="2"/>
<path d="M9 10.8291L27.5 4L46 10.8291V30.5128C44.1106 42.4034 32.8794 49.1254 27.5 51C13.3298 45.8581 9.26241 35.1994 9 30.5128V10.8291Z" stroke="black" stroke-width="2"/>
<path opacity="0.3" d="M1 19V5L8 1" stroke="#8995AF" stroke-width="2"/>
<path opacity="0.3" d="M1 21V23" stroke="#8995AF" stroke-width="2"/>
<path opacity="0.3" d="M1 25V27" stroke="#8995AF" stroke-width="2"/>
</svg>
